<?xml version="1.0" encoding="UTF-8" standalone="no"?>
<!DOCTYPE svg PUBLIC "-//W3C//DTD SVG 1.1//EN"
 "http://www.w3.org/Graphics/SVG/1.1/DTD/svg11.dtd">
<!-- Generated by graphviz version 2.43.0 (0)
 -->
<!-- Title: APIAttackTree Pages: 1 -->
<svg width="2784pt" height="295pt"
 viewBox="0.00 0.00 2783.50 295.00" xmlns="http://www.w3.org/2000/svg" xmlns:xlink="http://www.w3.org/1999/xlink">
<g id="graph0" class="graph" transform="scale(1 1) rotate(0) translate(4 291)">
<title>APIAttackTree</title>
<polygon fill="white" stroke="transparent" points="-4,4 -4,-291 2779.5,-291 2779.5,4 -4,4"/>
<g id="clust1" class="cluster">
<title>cluster_legend</title>
<polygon fill="none" stroke="black" points="1894,-208 1894,-279 2664,-279 2664,-208 1894,-208"/>
<text text-anchor="middle" x="2279" y="-267" font-family="Times,serif" font-size="10.00">Attack Tree Legend</text>
</g>
<!-- Compromise API Endpoints -->
<g id="node1" class="node">
<title>Compromise API Endpoints</title>
<ellipse fill="red" stroke="red" cx="1745" cy="-234" rx="138.38" ry="18"/>
<text text-anchor="middle" x="1745" y="-230.3" font-family="Times,serif" font-size="14.00">Compromise API Endpoints</text>
</g>
<!-- Authentication Bypass -->
<g id="node2" class="node">
<title>Authentication Bypass</title>
<polygon fill="orange" stroke="black" points="1044.5,-180 867.5,-180 867.5,-144 1044.5,-144 1044.5,-180"/>
<text text-anchor="middle" x="956" y="-158.3" font-family="Times,serif" font-size="14.00">Authentication Bypass</text>
</g>
<!-- Compromise API Endpoints&#45;&gt;Authentication Bypass -->
<g id="edge1" class="edge">
<title>Compromise API Endpoints&#45;&gt;Authentication Bypass</title>
<path fill="none" stroke="black" d="M1634.05,-223.16C1479.59,-209.45 1202.19,-184.84 1054.62,-171.75"/>
<polygon fill="black" stroke="black" points="1054.93,-168.26 1044.66,-170.87 1054.31,-175.24 1054.93,-168.26"/>
</g>
<!-- Injection Attacks -->
<g id="node3" class="node">
<title>Injection Attacks</title>
<polygon fill="orange" stroke="black" points="1668.5,-180 1531.5,-180 1531.5,-144 1668.5,-144 1668.5,-180"/>
<text text-anchor="middle" x="1600" y="-158.3" font-family="Times,serif" font-size="14.00">Injection Attacks</text>
</g>
<!-- Compromise API Endpoints&#45;&gt;Injection Attacks -->
<g id="edge2" class="edge">
<title>Compromise API Endpoints&#45;&gt;Injection Attacks</title>
<path fill="none" stroke="black" d="M1710.64,-216.41C1690.87,-206.87 1665.81,-194.77 1644.54,-184.5"/>
<polygon fill="black" stroke="black" points="1645.9,-181.27 1635.38,-180.08 1642.86,-187.58 1645.9,-181.27"/>
</g>
<!-- Data Exposure -->
<g id="node4" class="node">
<title>Data Exposure</title>
<polygon fill="orange" stroke="black" points="1963,-180 1841,-180 1841,-144 1963,-144 1963,-180"/>
<text text-anchor="middle" x="1902" y="-158.3" font-family="Times,serif" font-size="14.00">Data Exposure</text>
</g>
<!-- Compromise API Endpoints&#45;&gt;Data Exposure -->
<g id="edge3" class="edge">
<title>Compromise API Endpoints&#45;&gt;Data Exposure</title>
<path fill="none" stroke="black" d="M1781.81,-216.59C1803.48,-206.93 1831.11,-194.61 1854.42,-184.21"/>
<polygon fill="black" stroke="black" points="1856.07,-187.31 1863.78,-180.04 1853.22,-180.92 1856.07,-187.31"/>
</g>
<!-- DoS Attacks -->
<g id="node5" class="node">
<title>DoS Attacks</title>
<polygon fill="orange" stroke="black" points="2465,-180 2361,-180 2361,-144 2465,-144 2465,-180"/>
<text text-anchor="middle" x="2413" y="-158.3" font-family="Times,serif" font-size="14.00">DoS Attacks</text>
</g>
<!-- Compromise API Endpoints&#45;&gt;DoS Attacks -->
<g id="edge4" class="edge">
<title>Compromise API Endpoints&#45;&gt;DoS Attacks</title>
<path fill="none" stroke="black" d="M1820.07,-218.81C1842.51,-214.9 1867.2,-210.94 1890,-208 2055.86,-186.61 2252.67,-172.76 2350.84,-166.64"/>
<polygon fill="black" stroke="black" points="2351.12,-170.12 2360.88,-166.01 2350.68,-163.14 2351.12,-170.12"/>
</g>
<!-- Steal JWT Token -->
<g id="node6" class="node">
<title>Steal JWT Token</title>
<polygon fill="yellow" stroke="black" points="477.5,-108 344.5,-108 344.5,-72 477.5,-72 477.5,-108"/>
<text text-anchor="middle" x="411" y="-86.3" font-family="Times,serif" font-size="14.00">Steal JWT Token</text>
</g>
<!-- Authentication Bypass&#45;&gt;Steal JWT Token -->
<g id="edge5" class="edge">
<title>Authentication Bypass&#45;&gt;Steal JWT Token</title>
<path fill="none" stroke="black" d="M867.22,-149.6C761.81,-136.06 587.73,-113.7 487.84,-100.87"/>
<polygon fill="black" stroke="black" points="488.18,-97.38 477.82,-99.58 487.29,-104.33 488.18,-97.38"/>
</g>
<!-- Forge JWT Token -->
<g id="node7" class="node">
<title>Forge JWT Token</title>
<polygon fill="yellow" stroke="black" points="856.5,-108 719.5,-108 719.5,-72 856.5,-72 856.5,-108"/>
<text text-anchor="middle" x="788" y="-86.3" font-family="Times,serif" font-size="14.00">Forge JWT Token</text>
</g>
<!-- Authentication Bypass&#45;&gt;Forge JWT Token -->
<g id="edge6" class="edge">
<title>Authentication Bypass&#45;&gt;Forge JWT Token</title>
<path fill="none" stroke="black" d="M914.9,-143.88C891.83,-134.26 862.86,-122.19 838.43,-112.01"/>
<polygon fill="black" stroke="black" points="839.54,-108.68 828.96,-108.07 836.85,-115.15 839.54,-108.68"/>
</g>
<!-- Exploit RMAP Flaws -->
<g id="node8" class="node">
<title>Exploit RMAP Flaws</title>
<polygon fill="yellow" stroke="black" points="1037.5,-108 874.5,-108 874.5,-72 1037.5,-72 1037.5,-108"/>
<text text-anchor="middle" x="956" y="-86.3" font-family="Times,serif" font-size="14.00">Exploit RMAP Flaws</text>
</g>
<!-- Authentication Bypass&#45;&gt;Exploit RMAP Flaws -->
<g id="edge7" class="edge">
<title>Authentication Bypass&#45;&gt;Exploit RMAP Flaws</title>
<path fill="none" stroke="black" d="M956,-143.7C956,-135.98 956,-126.71 956,-118.11"/>
<polygon fill="black" stroke="black" points="959.5,-118.1 956,-108.1 952.5,-118.1 959.5,-118.1"/>
</g>
<!-- Session Hijacking -->
<g id="node9" class="node">
<title>Session Hijacking</title>
<polygon fill="yellow" stroke="black" points="1198.5,-108 1055.5,-108 1055.5,-72 1198.5,-72 1198.5,-108"/>
<text text-anchor="middle" x="1127" y="-86.3" font-family="Times,serif" font-size="14.00">Session Hijacking</text>
</g>
<!-- Authentication Bypass&#45;&gt;Session Hijacking -->
<g id="edge8" class="edge">
<title>Authentication Bypass&#45;&gt;Session Hijacking</title>
<path fill="none" stroke="black" d="M997.83,-143.88C1021.42,-134.22 1051.06,-122.09 1076,-111.88"/>
<polygon fill="black" stroke="black" points="1077.38,-115.1 1085.3,-108.07 1074.72,-108.62 1077.38,-115.1"/>
</g>
<!-- SQL Injection -->
<g id="node14" class="node">
<title>SQL Injection</title>
<polygon fill="yellow" stroke="black" points="1433.5,-108 1320.5,-108 1320.5,-72 1433.5,-72 1433.5,-108"/>
<text text-anchor="middle" x="1377" y="-86.3" font-family="Times,serif" font-size="14.00">SQL Injection</text>
</g>
<!-- Injection Attacks&#45;&gt;SQL Injection -->
<g id="edge13" class="edge">
<title>Injection Attacks&#45;&gt;SQL Injection</title>
<path fill="none" stroke="black" d="M1545.73,-143.97C1514.17,-134.06 1474.21,-121.51 1441.1,-111.12"/>
<polygon fill="black" stroke="black" points="1442.1,-107.77 1431.51,-108.11 1440,-114.45 1442.1,-107.77"/>
</g>
<!-- Command Injection -->
<g id="node15" class="node">
<title>Command Injection</title>
<polygon fill="yellow" stroke="black" points="1606.5,-108 1451.5,-108 1451.5,-72 1606.5,-72 1606.5,-108"/>
<text text-anchor="middle" x="1529" y="-86.3" font-family="Times,serif" font-size="14.00">Command Injection</text>
</g>
<!-- Injection Attacks&#45;&gt;Command Injection -->
<g id="edge14" class="edge">
<title>Injection Attacks&#45;&gt;Command Injection</title>
<path fill="none" stroke="black" d="M1582.45,-143.7C1573.77,-135.14 1563.14,-124.66 1553.65,-115.3"/>
<polygon fill="black" stroke="black" points="1555.93,-112.63 1546.35,-108.1 1551.01,-117.62 1555.93,-112.63"/>
</g>
<!-- Path Traversal -->
<g id="node16" class="node">
<title>Path Traversal</title>
<polygon fill="yellow" stroke="black" points="1745.5,-108 1624.5,-108 1624.5,-72 1745.5,-72 1745.5,-108"/>
<text text-anchor="middle" x="1685" y="-86.3" font-family="Times,serif" font-size="14.00">Path Traversal</text>
</g>
<!-- Injection Attacks&#45;&gt;Path Traversal -->
<g id="edge15" class="edge">
<title>Injection Attacks&#45;&gt;Path Traversal</title>
<path fill="none" stroke="black" d="M1621.01,-143.7C1631.72,-134.88 1644.89,-124.03 1656.5,-114.47"/>
<polygon fill="black" stroke="black" points="1658.74,-117.16 1664.23,-108.1 1654.29,-111.76 1658.74,-117.16"/>
</g>
<!-- IDOR Attacks -->
<g id="node20" class="node">
<title>IDOR Attacks</title>
<polygon fill="yellow" stroke="black" points="1876.5,-108 1763.5,-108 1763.5,-72 1876.5,-72 1876.5,-108"/>
<text text-anchor="middle" x="1820" y="-86.3" font-family="Times,serif" font-size="14.00">IDOR Attacks</text>
</g>
<!-- Data Exposure&#45;&gt;IDOR Attacks -->
<g id="edge19" class="edge">
<title>Data Exposure&#45;&gt;IDOR Attacks</title>
<path fill="none" stroke="black" d="M1881.73,-143.7C1871.5,-134.97 1858.94,-124.24 1847.82,-114.75"/>
<polygon fill="black" stroke="black" points="1849.91,-111.94 1840.04,-108.1 1845.37,-117.26 1849.91,-111.94"/>
</g>
<!-- Excessive Data Return -->
<g id="node21" class="node">
<title>Excessive Data Return</title>
<polygon fill="yellow" stroke="black" points="2073.5,-108 1894.5,-108 1894.5,-72 2073.5,-72 2073.5,-108"/>
<text text-anchor="middle" x="1984" y="-86.3" font-family="Times,serif" font-size="14.00">Excessive Data Return</text>
</g>
<!-- Data Exposure&#45;&gt;Excessive Data Return -->
<g id="edge20" class="edge">
<title>Data Exposure&#45;&gt;Excessive Data Return</title>
<path fill="none" stroke="black" d="M1922.27,-143.7C1932.5,-134.97 1945.06,-124.24 1956.18,-114.75"/>
<polygon fill="black" stroke="black" points="1958.63,-117.26 1963.96,-108.1 1954.09,-111.94 1958.63,-117.26"/>
</g>
<!-- Mass Assignment -->
<g id="node22" class="node">
<title>Mass Assignment</title>
<polygon fill="yellow" stroke="black" points="2234.5,-108 2091.5,-108 2091.5,-72 2234.5,-72 2234.5,-108"/>
<text text-anchor="middle" x="2163" y="-86.3" font-family="Times,serif" font-size="14.00">Mass Assignment</text>
</g>
<!-- Data Exposure&#45;&gt;Mass Assignment -->
<g id="edge21" class="edge">
<title>Data Exposure&#45;&gt;Mass Assignment</title>
<path fill="none" stroke="black" d="M1963.19,-144.59C2001.05,-134.43 2049.88,-121.34 2089.79,-110.64"/>
<polygon fill="black" stroke="black" points="2090.71,-114.01 2099.47,-108.04 2088.9,-107.25 2090.71,-114.01"/>
</g>
<!-- Rate Limit Bypass -->
<g id="node23" class="node">
<title>Rate Limit Bypass</title>
<polygon fill="yellow" stroke="black" points="2399.5,-108 2252.5,-108 2252.5,-72 2399.5,-72 2399.5,-108"/>
<text text-anchor="middle" x="2326" y="-86.3" font-family="Times,serif" font-size="14.00">Rate Limit Bypass</text>
</g>
<!-- DoS Attacks&#45;&gt;Rate Limit Bypass -->
<g id="edge22" class="edge">
<title>DoS Attacks&#45;&gt;Rate Limit Bypass</title>
<path fill="none" stroke="black" d="M2391.49,-143.7C2380.54,-134.88 2367.05,-124.03 2355.18,-114.47"/>
<polygon fill="black" stroke="black" points="2357.24,-111.65 2347.26,-108.1 2352.86,-117.1 2357.24,-111.65"/>
</g>
<!-- Resource Exhaustion -->
<g id="node24" class="node">
<title>Resource Exhaustion</title>
<polygon fill="yellow" stroke="black" points="2584.5,-108 2417.5,-108 2417.5,-72 2584.5,-72 2584.5,-108"/>
<text text-anchor="middle" x="2501" y="-86.3" font-family="Times,serif" font-size="14.00">Resource Exhaustion</text>
</g>
<!-- DoS Attacks&#45;&gt;Resource Exhaustion -->
<g id="edge23" class="edge">
<title>DoS Attacks&#45;&gt;Resource Exhaustion</title>
<path fill="none" stroke="black" d="M2434.75,-143.7C2445.84,-134.88 2459.47,-124.03 2471.49,-114.47"/>
<polygon fill="black" stroke="black" points="2473.85,-117.07 2479.5,-108.1 2469.49,-111.59 2473.85,-117.07"/>
</g>
<!-- Application Logic DoS -->
<g id="node25" class="node">
<title>Application Logic DoS</title>
<polygon fill="yellow" stroke="black" points="2775.5,-108 2602.5,-108 2602.5,-72 2775.5,-72 2775.5,-108"/>
<text text-anchor="middle" x="2689" y="-86.3" font-family="Times,serif" font-size="14.00">Application Logic DoS</text>
</g>
<!-- DoS Attacks&#45;&gt;Application Logic DoS -->
<g id="edge24" class="edge">
<title>DoS Attacks&#45;&gt;Application Logic DoS</title>
<path fill="none" stroke="black" d="M2465.24,-147.75C2506.67,-137.24 2565.2,-122.4 2612.01,-110.53"/>
<polygon fill="black" stroke="black" points="2612.97,-113.89 2621.81,-108.04 2611.25,-107.11 2612.97,-113.89"/>
</g>
<!-- Intercept HTTP Traffic -->
<g id="node10" class="node">
<title>Intercept HTTP Traffic</title>
<polygon fill="lightgreen" stroke="black" points="178,-36 0,-36 0,0 178,0 178,-36"/>
<text text-anchor="middle" x="89" y="-14.3" font-family="Times,serif" font-size="14.00">Intercept HTTP Traffic</text>
</g>
<!-- Steal JWT Token&#45;&gt;Intercept HTTP Traffic -->
<g id="edge9" class="edge">
<title>Steal JWT Token&#45;&gt;Intercept HTTP Traffic</title>
<path fill="none" stroke="black" d="M344.28,-74.5C295.91,-63.98 230.01,-49.65 177.29,-38.19"/>
<polygon fill="black" stroke="black" points="177.78,-34.72 167.26,-36.01 176.29,-41.56 177.78,-34.72"/>
</g>
<!-- Access Browser Storage -->
<g id="node11" class="node">
<title>Access Browser Storage</title>
<polygon fill="lightgreen" stroke="black" points="386,-36 196,-36 196,0 386,0 386,-36"/>
<text text-anchor="middle" x="291" y="-14.3" font-family="Times,serif" font-size="14.00">Access Browser Storage</text>
</g>
<!-- Steal JWT Token&#45;&gt;Access Browser Storage -->
<g id="edge10" class="edge">
<title>Steal JWT Token&#45;&gt;Access Browser Storage</title>
<path fill="none" stroke="black" d="M381.64,-71.88C365.95,-62.72 346.44,-51.34 329.55,-41.48"/>
<polygon fill="black" stroke="black" points="330.87,-38.21 320.47,-36.19 327.34,-44.25 330.87,-38.21"/>
</g>
<!-- High Failed Login Rate -->
<g id="node26" class="node">
<title>High Failed Login Rate</title>
<polygon fill="pink" stroke="black" points="658.16,-10.54 658.16,-25.46 583.67,-36 478.33,-36 403.84,-25.46 403.84,-10.54 478.33,0 583.67,0 658.16,-10.54"/>
<text text-anchor="middle" x="531" y="-14.3" font-family="Times,serif" font-size="14.00">High Failed Login Rate</text>
</g>
<!-- Steal JWT Token&#45;&gt;High Failed Login Rate -->
<g id="edge25" class="edge">
<title>Steal JWT Token&#45;&gt;High Failed Login Rate</title>
<path fill="none" stroke="red" stroke-dasharray="5,2" d="M440.36,-71.88C456.05,-62.72 475.56,-51.34 492.45,-41.48"/>
<polygon fill="red" stroke="red" points="494.66,-44.25 501.53,-36.19 491.13,-38.21 494.66,-44.25"/>
</g>
<!-- Weak Secret Guessing -->
<g id="node12" class="node">
<title>Weak Secret Guessing</title>
<polygon fill="lightgreen" stroke="black" points="852,-36 676,-36 676,0 852,0 852,-36"/>
<text text-anchor="middle" x="764" y="-14.3" font-family="Times,serif" font-size="14.00">Weak Secret Guessing</text>
</g>
<!-- Forge JWT Token&#45;&gt;Weak Secret Guessing -->
<g id="edge11" class="edge">
<title>Forge JWT Token&#45;&gt;Weak Secret Guessing</title>
<path fill="none" stroke="black" d="M782.07,-71.7C779.39,-63.9 776.17,-54.51 773.2,-45.83"/>
<polygon fill="black" stroke="black" points="776.42,-44.43 769.86,-36.1 769.8,-46.7 776.42,-44.43"/>
</g>
<!-- Modify Token Claims -->
<g id="node13" class="node">
<title>Modify Token Claims</title>
<polygon fill="lightgreen" stroke="black" points="1036,-36 870,-36 870,0 1036,0 1036,-36"/>
<text text-anchor="middle" x="953" y="-14.3" font-family="Times,serif" font-size="14.00">Modify Token Claims</text>
</g>
<!-- Forge JWT Token&#45;&gt;Modify Token Claims -->
<g id="edge12" class="edge">
<title>Forge JWT Token&#45;&gt;Modify Token Claims</title>
<path fill="none" stroke="black" d="M828.36,-71.88C851.02,-62.26 879.47,-50.19 903.47,-40.01"/>
<polygon fill="black" stroke="black" points="904.93,-43.2 912.77,-36.07 902.19,-36.75 904.93,-43.2"/>
</g>
<!-- Union&#45;based SQLi -->
<g id="node17" class="node">
<title>Union&#45;based SQLi</title>
<polygon fill="lightgreen" stroke="black" points="1199.5,-36 1054.5,-36 1054.5,0 1199.5,0 1199.5,-36"/>
<text text-anchor="middle" x="1127" y="-14.3" font-family="Times,serif" font-size="14.00">Union&#45;based SQLi</text>
</g>
<!-- SQL Injection&#45;&gt;Union&#45;based SQLi -->
<g id="edge16" class="edge">
<title>SQL Injection&#45;&gt;Union&#45;based SQLi</title>
<path fill="none" stroke="black" d="M1320.27,-73.12C1283.88,-62.93 1236.36,-49.62 1197.54,-38.75"/>
<polygon fill="black" stroke="black" points="1198.45,-35.37 1187.87,-36.04 1196.56,-42.11 1198.45,-35.37"/>
</g>
<!-- Boolean&#45;based SQLi -->
<g id="node18" class="node">
<title>Boolean&#45;based SQLi</title>
<polygon fill="lightgreen" stroke="black" points="1376.5,-36 1217.5,-36 1217.5,0 1376.5,0 1376.5,-36"/>
<text text-anchor="middle" x="1297" y="-14.3" font-family="Times,serif" font-size="14.00">Boolean&#45;based SQLi</text>
</g>
<!-- SQL Injection&#45;&gt;Boolean&#45;based SQLi -->
<g id="edge17" class="edge">
<title>SQL Injection&#45;&gt;Boolean&#45;based SQLi</title>
<path fill="none" stroke="black" d="M1357.22,-71.7C1347.25,-62.97 1334.99,-52.24 1324.14,-42.75"/>
<polygon fill="black" stroke="black" points="1326.38,-40.06 1316.55,-36.1 1321.77,-45.32 1326.38,-40.06"/>
</g>
<!-- Time&#45;based SQLi -->
<g id="node19" class="node">
<title>Time&#45;based SQLi</title>
<polygon fill="lightgreen" stroke="black" points="1531.5,-36 1394.5,-36 1394.5,0 1531.5,0 1531.5,-36"/>
<text text-anchor="middle" x="1463" y="-14.3" font-family="Times,serif" font-size="14.00">Time&#45;based SQLi</text>
</g>
<!-- SQL Injection&#45;&gt;Time&#45;based SQLi -->
<g id="edge18" class="edge">
<title>SQL Injection&#45;&gt;Time&#45;based SQLi</title>
<path fill="none" stroke="black" d="M1398.26,-71.7C1409.09,-62.88 1422.42,-52.03 1434.16,-42.47"/>
<polygon fill="black" stroke="black" points="1436.44,-45.13 1441.99,-36.1 1432.02,-39.7 1436.44,-45.13"/>
</g>
<!-- SQL Syntax Errors -->
<g id="node27" class="node">
<title>SQL Syntax Errors</title>
<polygon fill="pink" stroke="black" points="1762.86,-10.54 1762.86,-25.46 1700.26,-36 1611.74,-36 1549.14,-25.46 1549.14,-10.54 1611.74,0 1700.26,0 1762.86,-10.54"/>
<text text-anchor="middle" x="1656" y="-14.3" font-family="Times,serif" font-size="14.00">SQL Syntax Errors</text>
</g>
<!-- SQL Injection&#45;&gt;SQL Syntax Errors -->
<g id="edge26" class="edge">
<title>SQL Injection&#45;&gt;SQL Syntax Errors</title>
<path fill="none" stroke="red" stroke-dasharray="5,2" d="M1433.71,-74.12C1436.51,-73.4 1439.29,-72.69 1442,-72 1490.25,-59.72 1544.71,-46.23 1586.62,-35.94"/>
<polygon fill="red" stroke="red" points="1587.57,-39.31 1596.45,-33.53 1585.9,-32.51 1587.57,-39.31"/>
</g>
<!-- Unusual API Patterns -->
<g id="node28" class="node">
<title>Unusual API Patterns</title>
<polygon fill="pink" stroke="black" points="2020.69,-10.54 2020.69,-25.46 1950.58,-36 1851.42,-36 1781.31,-25.46 1781.31,-10.54 1851.42,0 1950.58,0 2020.69,-10.54"/>
<text text-anchor="middle" x="1901" y="-14.3" font-family="Times,serif" font-size="14.00">Unusual API Patterns</text>
</g>
<!-- IDOR Attacks&#45;&gt;Unusual API Patterns -->
<g id="edge27" class="edge">
<title>IDOR Attacks&#45;&gt;Unusual API Patterns</title>
<path fill="none" stroke="red" stroke-dasharray="5,2" d="M1840.02,-71.7C1850.13,-62.97 1862.54,-52.24 1873.52,-42.75"/>
<polygon fill="red" stroke="red" points="1875.93,-45.29 1881.21,-36.1 1871.35,-39.99 1875.93,-45.29"/>
</g>
<!-- Resource Usage Spikes -->
<g id="node29" class="node">
<title>Resource Usage Spikes</title>
<polygon fill="pink" stroke="black" points="2630.39,-10.54 2630.39,-25.46 2554.59,-36 2447.41,-36 2371.61,-25.46 2371.61,-10.54 2447.41,0 2554.59,0 2630.39,-10.54"/>
<text text-anchor="middle" x="2501" y="-14.3" font-family="Times,serif" font-size="14.00">Resource Usage Spikes</text>
</g>
<!-- Resource Exhaustion&#45;&gt;Resource Usage Spikes -->
<g id="edge28" class="edge">
<title>Resource Exhaustion&#45;&gt;Resource Usage Spikes</title>
<path fill="none" stroke="red" stroke-dasharray="5,2" d="M2501,-71.7C2501,-63.98 2501,-54.71 2501,-46.11"/>
<polygon fill="red" stroke="red" points="2504.5,-46.1 2501,-36.1 2497.5,-46.1 2504.5,-46.1"/>
</g>
<!-- Attack Goal -->
<g id="node30" class="node">
<title>Attack Goal</title>
<polygon fill="red" stroke="black" points="2655.5,-252 2556.5,-252 2556.5,-216 2655.5,-216 2655.5,-252"/>
<text text-anchor="middle" x="2606" y="-230.3" font-family="Times,serif" font-size="14.00">Attack Goal</text>
</g>
<!-- Attack Category -->
<g id="node31" class="node">
<title>Attack Category</title>
<polygon fill="orange" stroke="black" points="2538,-252 2406,-252 2406,-216 2538,-216 2538,-252"/>
<text text-anchor="middle" x="2472" y="-230.3" font-family="Times,serif" font-size="14.00">Attack Category</text>
</g>
<!-- Attack Technique -->
<g id="node32" class="node">
<title>Attack Technique</title>
<polygon fill="yellow" stroke="black" points="2388,-252 2248,-252 2248,-216 2388,-216 2388,-252"/>
<text text-anchor="middle" x="2318" y="-230.3" font-family="Times,serif" font-size="14.00">Attack Technique</text>
</g>
<!-- Specific Method -->
<g id="node33" class="node">
<title>Specific Method</title>
<polygon fill="lightgreen" stroke="black" points="2229.5,-252 2098.5,-252 2098.5,-216 2229.5,-216 2229.5,-252"/>
<text text-anchor="middle" x="2164" y="-230.3" font-family="Times,serif" font-size="14.00">Specific Method</text>
</g>
<!-- Detection Point -->
<g id="node34" class="node">
<title>Detection Point</title>
<polygon fill="pink" stroke="black" points="2080.19,-226.54 2080.19,-241.46 2027.94,-252 1954.06,-252 1901.81,-241.46 1901.81,-226.54 1954.06,-216 2027.94,-216 2080.19,-226.54"/>
<text text-anchor="middle" x="1991" y="-230.3" font-family="Times,serif" font-size="14.00">Detection Point</text>
</g>
</g>
</svg>
