<?xml version="1.0" encoding="UTF-8" standalone="no"?>
<!DOCTYPE svg PUBLIC "-//W3C//DTD SVG 1.1//EN"
 "http://www.w3.org/Graphics/SVG/1.1/DTD/svg11.dtd">
<!-- Generated by graphviz version 2.43.0 (0)
 -->
<!-- Title: AssetDependencies Pages: 1 -->
<svg width="262pt" height="1098pt"
 viewBox="0.00 0.00 262.00 1098.00" xmlns="http://www.w3.org/2000/svg" xmlns:xlink="http://www.w3.org/1999/xlink">
<g id="graph0" class="graph" transform="scale(1 1) rotate(0) translate(4 1094)">
<title>AssetDependencies</title>
<polygon fill="white" stroke="transparent" points="-4,4 -4,-1094 258,-1094 258,4 -4,4"/>
<!-- DB&#45;001 -->
<g id="node1" class="node">
<title>DB&#45;001</title>
<polygon fill="red" stroke="black" points="158,-38 6,-38 6,0 158,0 158,-38"/>
<text text-anchor="middle" x="82" y="-22.8" font-family="Times,serif" font-size="14.00">MariaDB Database</text>
<text text-anchor="middle" x="82" y="-7.8" font-family="Times,serif" font-size="14.00">(DB&#45;001)</text>
</g>
<!-- SEC&#45;002 -->
<g id="node2" class="node">
<title>SEC&#45;002</title>
<polygon fill="red" stroke="black" points="126.5,-94 37.5,-94 37.5,-56 126.5,-56 126.5,-94"/>
<text text-anchor="middle" x="82" y="-78.8" font-family="Times,serif" font-size="14.00">GPG Keys</text>
<text text-anchor="middle" x="82" y="-63.8" font-family="Times,serif" font-size="14.00">(SEC&#45;002)</text>
</g>
<!-- SEC&#45;003 -->
<g id="node3" class="node">
<title>SEC&#45;003</title>
<polygon fill="red" stroke="black" points="134,-150 30,-150 30,-112 134,-112 134,-150"/>
<text text-anchor="middle" x="82" y="-134.8" font-family="Times,serif" font-size="14.00">JWT Secrets</text>
<text text-anchor="middle" x="82" y="-119.8" font-family="Times,serif" font-size="14.00">(SEC&#45;003)</text>
</g>
<!-- SEC&#45;005 -->
<g id="node4" class="node">
<title>SEC&#45;005</title>
<polygon fill="red" stroke="black" points="126.5,-206 37.5,-206 37.5,-168 126.5,-168 126.5,-206"/>
<text text-anchor="middle" x="82" y="-190.8" font-family="Times,serif" font-size="14.00">Flag Files</text>
<text text-anchor="middle" x="82" y="-175.8" font-family="Times,serif" font-size="14.00">(SEC&#45;005)</text>
</g>
<!-- APP&#45;001 -->
<g id="node5" class="node">
<title>APP&#45;001</title>
<polygon fill="orange" stroke="black" points="152,-262 12,-262 12,-224 152,-224 152,-262"/>
<text text-anchor="middle" x="82" y="-246.8" font-family="Times,serif" font-size="14.00">Flask Application</text>
<text text-anchor="middle" x="82" y="-231.8" font-family="Times,serif" font-size="14.00">(APP&#45;001)</text>
</g>
<!-- APP&#45;002 -->
<g id="node6" class="node">
<title>APP&#45;002</title>
<polygon fill="orange" stroke="black" points="149,-318 15,-318 15,-280 149,-280 149,-318"/>
<text text-anchor="middle" x="82" y="-302.8" font-family="Times,serif" font-size="14.00">Gunicorn Server</text>
<text text-anchor="middle" x="82" y="-287.8" font-family="Times,serif" font-size="14.00">(APP&#45;002)</text>
</g>
<!-- WM&#45;001 -->
<g id="node7" class="node">
<title>WM&#45;001</title>
<polygon fill="orange" stroke="black" points="164,-374 0,-374 0,-336 164,-336 164,-374"/>
<text text-anchor="middle" x="82" y="-358.8" font-family="Times,serif" font-size="14.00">Phantom Watermark</text>
<text text-anchor="middle" x="82" y="-343.8" font-family="Times,serif" font-size="14.00">(WM&#45;001)</text>
</g>
<!-- AUTH&#45;001 -->
<g id="node8" class="node">
<title>AUTH&#45;001</title>
<polygon fill="orange" stroke="black" points="133.5,-430 30.5,-430 30.5,-392 133.5,-392 133.5,-430"/>
<text text-anchor="middle" x="82" y="-414.8" font-family="Times,serif" font-size="14.00">JWT System</text>
<text text-anchor="middle" x="82" y="-399.8" font-family="Times,serif" font-size="14.00">(AUTH&#45;001)</text>
</g>
<!-- AUTH&#45;002 -->
<g id="node9" class="node">
<title>AUTH&#45;002</title>
<polygon fill="orange" stroke="black" points="144.5,-486 19.5,-486 19.5,-448 144.5,-448 144.5,-486"/>
<text text-anchor="middle" x="82" y="-470.8" font-family="Times,serif" font-size="14.00">RMAP Protocol</text>
<text text-anchor="middle" x="82" y="-455.8" font-family="Times,serif" font-size="14.00">(AUTH&#45;002)</text>
</g>
<!-- DB&#45;002 -->
<g id="node10" class="node">
<title>DB&#45;002</title>
<polygon fill="yellow" stroke="black" points="138,-542 26,-542 26,-504 138,-504 138,-542"/>
<text text-anchor="middle" x="82" y="-526.8" font-family="Times,serif" font-size="14.00">phpMyAdmin</text>
<text text-anchor="middle" x="82" y="-511.8" font-family="Times,serif" font-size="14.00">(DB&#45;002)</text>
</g>
<!-- MON&#45;001 -->
<g id="node11" class="node">
<title>MON&#45;001</title>
<polygon fill="yellow" stroke="black" points="133.5,-598 30.5,-598 30.5,-560 133.5,-560 133.5,-598"/>
<text text-anchor="middle" x="82" y="-582.8" font-family="Times,serif" font-size="14.00">Prometheus</text>
<text text-anchor="middle" x="82" y="-567.8" font-family="Times,serif" font-size="14.00">(MON&#45;001)</text>
</g>
<!-- MON&#45;002 -->
<g id="node12" class="node">
<title>MON&#45;002</title>
<polygon fill="yellow" stroke="black" points="130,-654 34,-654 34,-616 130,-616 130,-654"/>
<text text-anchor="middle" x="82" y="-638.8" font-family="Times,serif" font-size="14.00">Grafana</text>
<text text-anchor="middle" x="82" y="-623.8" font-family="Times,serif" font-size="14.00">(MON&#45;002)</text>
</g>
<!-- FS&#45;001 -->
<g id="node13" class="node">
<title>FS&#45;001</title>
<polygon fill="yellow" stroke="black" points="140.5,-710 23.5,-710 23.5,-672 140.5,-672 140.5,-710"/>
<text text-anchor="middle" x="82" y="-694.8" font-family="Times,serif" font-size="14.00">Original PDFs</text>
<text text-anchor="middle" x="82" y="-679.8" font-family="Times,serif" font-size="14.00">(FS&#45;001)</text>
</g>
<!-- FS&#45;002 -->
<g id="node14" class="node">
<title>FS&#45;002</title>
<polygon fill="yellow" stroke="black" points="160,-766 4,-766 4,-728 160,-728 160,-766"/>
<text text-anchor="middle" x="82" y="-750.8" font-family="Times,serif" font-size="14.00">Watermarked PDFs</text>
<text text-anchor="middle" x="82" y="-735.8" font-family="Times,serif" font-size="14.00">(FS&#45;002)</text>
</g>
<!-- APP -->
<g id="node15" class="node">
<title>APP</title>
<polygon fill="lightgrey" stroke="black" points="254,-928 200,-928 200,-892 254,-892 254,-928"/>
<text text-anchor="middle" x="227" y="-906.3" font-family="Times,serif" font-size="14.00">APP</text>
</g>
<!-- &#45;001 -->
<g id="node16" class="node">
<title>&#45;001</title>
<polygon fill="lightgrey" stroke="black" points="114,-928 50,-928 50,-892 114,-892 114,-928"/>
<text text-anchor="middle" x="82" y="-906.3" font-family="Times,serif" font-size="14.00">output</text>
</g>
<!-- &#45;001&#45;&gt;APP -->
<g id="edge5" class="edge">
<title>&#45;001&#45;&gt;APP</title>
<path fill="none" stroke="black" d="M114.03,-892.96C136.35,-888.97 166.53,-888.7 189.93,-892.14"/>
<polygon fill="black" stroke="black" points="189.36,-895.6 199.82,-893.92 190.6,-888.71 189.36,-895.6"/>
</g>
<!-- &#45;001&#45;&gt;APP -->
<g id="edge6" class="edge">
<title>&#45;001&#45;&gt;APP</title>
<path fill="none" stroke="black" d="M114.03,-904.32C136.25,-903 166.26,-902.9 189.61,-904.03"/>
<polygon fill="black" stroke="black" points="189.63,-907.54 199.82,-904.64 190.05,-900.55 189.63,-907.54"/>
</g>
<!-- &#45;001&#45;&gt;APP -->
<g id="edge8" class="edge">
<title>&#45;001&#45;&gt;APP</title>
<path fill="none" stroke="black" d="M114.03,-915.68C136.25,-917 166.26,-917.1 189.61,-915.97"/>
<polygon fill="black" stroke="black" points="190.05,-919.45 199.82,-915.36 189.63,-912.46 190.05,-919.45"/>
</g>
<!-- &#45;001&#45;&gt;APP -->
<g id="edge10" class="edge">
<title>&#45;001&#45;&gt;APP</title>
<path fill="none" stroke="black" d="M114.03,-927.04C136.35,-931.03 166.53,-931.3 189.93,-927.86"/>
<polygon fill="black" stroke="black" points="190.6,-931.29 199.82,-926.08 189.36,-924.4 190.6,-931.29"/>
</g>
<!-- DB -->
<g id="node17" class="node">
<title>DB</title>
<polygon fill="lightgrey" stroke="black" points="254,-874 200,-874 200,-838 254,-838 254,-874"/>
<text text-anchor="middle" x="227" y="-852.3" font-family="Times,serif" font-size="14.00">DB</text>
</g>
<!-- &#45;001&#45;&gt;DB -->
<g id="edge1" class="edge">
<title>&#45;001&#45;&gt;DB</title>
<path fill="none" stroke="black" d="M114.03,-898.28C136.45,-889.81 166.8,-878.36 190.24,-869.5"/>
<polygon fill="black" stroke="black" points="191.7,-872.69 199.82,-865.88 189.23,-866.14 191.7,-872.69"/>
</g>
<!-- SEC -->
<g id="node18" class="node">
<title>SEC</title>
<polygon fill="lightgrey" stroke="black" points="254,-820 200,-820 200,-784 254,-784 254,-820"/>
<text text-anchor="middle" x="227" y="-798.3" font-family="Times,serif" font-size="14.00">SEC</text>
</g>
<!-- &#45;001&#45;&gt;SEC -->
<g id="edge2" class="edge">
<title>&#45;001&#45;&gt;SEC</title>
<path fill="none" stroke="black" d="M106.93,-891.92C130.75,-873.93 167.46,-846.21 193.82,-826.3"/>
<polygon fill="black" stroke="black" points="196.12,-828.96 201.99,-820.14 191.9,-823.37 196.12,-828.96"/>
</g>
<!-- &#45;003 -->
<g id="node19" class="node">
<title>&#45;003</title>
<polygon fill="lightgrey" stroke="black" points="147.5,-982 16.5,-982 16.5,-946 147.5,-946 147.5,-982"/>
<text text-anchor="middle" x="82" y="-960.3" font-family="Times,serif" font-size="14.00">token validation</text>
</g>
<!-- AUTH -->
<g id="node20" class="node">
<title>AUTH</title>
<polygon fill="lightgrey" stroke="black" points="111.5,-1036 52.5,-1036 52.5,-1000 111.5,-1000 111.5,-1036"/>
<text text-anchor="middle" x="82" y="-1014.3" font-family="Times,serif" font-size="14.00">AUTH</text>
</g>
<!-- &#45;002 -->
<g id="node21" class="node">
<title>&#45;002</title>
<polygon fill="lightgrey" stroke="black" points="147,-820 17,-820 17,-784 147,-784 147,-820"/>
<text text-anchor="middle" x="82" y="-798.3" font-family="Times,serif" font-size="14.00">GPG encryption</text>
</g>
<!-- &#45;002&#45;&gt;APP -->
<g id="edge4" class="edge">
<title>&#45;002&#45;&gt;APP</title>
<path fill="none" stroke="black" d="M106.93,-820.08C130.75,-838.07 167.46,-865.79 193.82,-885.7"/>
<polygon fill="black" stroke="black" points="191.9,-888.63 201.99,-891.86 196.12,-883.04 191.9,-888.63"/>
</g>
<!-- &#45;002&#45;&gt;DB -->
<g id="edge7" class="edge">
<title>&#45;002&#45;&gt;DB</title>
<path fill="none" stroke="black" d="M131.01,-820.13C150.46,-827.47 172.51,-835.8 190.46,-842.58"/>
<polygon fill="black" stroke="black" points="189.39,-845.91 199.98,-846.17 191.86,-839.37 189.39,-845.91"/>
</g>
<!-- &#45;002&#45;&gt;SEC -->
<g id="edge3" class="edge">
<title>&#45;002&#45;&gt;SEC</title>
<path fill="none" stroke="black" d="M147.39,-802C161.87,-802 176.74,-802 189.6,-802"/>
<polygon fill="black" stroke="black" points="189.87,-805.5 199.87,-802 189.87,-798.5 189.87,-805.5"/>
</g>
<!-- WM -->
<g id="node22" class="node">
<title>WM</title>
<polygon fill="lightgrey" stroke="black" points="254,-712 200,-712 200,-676 254,-676 254,-712"/>
<text text-anchor="middle" x="227" y="-690.3" font-family="Times,serif" font-size="14.00">WM</text>
</g>
<!-- &#45;002&#45;&gt;WM -->
<g id="edge11" class="edge">
<title>&#45;002&#45;&gt;WM</title>
<path fill="none" stroke="black" d="M147.39,-785.06C153.29,-782.2 158.93,-778.87 164,-775 186.92,-757.49 181.92,-743.48 200,-721 200.3,-720.63 200.6,-720.26 200.9,-719.89"/>
<polygon fill="black" stroke="black" points="203.69,-722.02 207.64,-712.19 198.42,-717.41 203.69,-722.02"/>
</g>
<!-- MON -->
<g id="node23" class="node">
<title>MON</title>
<polygon fill="lightgrey" stroke="black" points="254,-766 200,-766 200,-730 254,-730 254,-766"/>
<text text-anchor="middle" x="227" y="-744.3" font-family="Times,serif" font-size="14.00">MON</text>
</g>
<!-- &#45;002&#45;&gt;MON -->
<g id="edge9" class="edge">
<title>&#45;002&#45;&gt;MON</title>
<path fill="none" stroke="black" d="M139.44,-783.9C147.72,-781.04 156.11,-778.03 164,-775 172.68,-771.67 181.92,-767.82 190.55,-764.08"/>
<polygon fill="black" stroke="black" points="192.22,-767.17 199.97,-759.95 189.4,-760.76 192.22,-767.17"/>
</g>
<!-- FS -->
<g id="node24" class="node">
<title>FS</title>
<polygon fill="lightgrey" stroke="black" points="109,-1090 55,-1090 55,-1054 109,-1054 109,-1090"/>
<text text-anchor="middle" x="82" y="-1068.3" font-family="Times,serif" font-size="14.00">FS</text>
</g>
</g>
</svg>
