<?xml version="1.0" encoding="UTF-8" standalone="no"?>
<!DOCTYPE svg PUBLIC "-//W3C//DTD SVG 1.1//EN"
 "http://www.w3.org/Graphics/SVG/1.1/DTD/svg11.dtd">
<!-- Generated by graphviz version 2.43.0 (0)
 -->
<!-- Title: TatouArchitecture Pages: 1 -->
<svg width="1725pt" height="545pt"
 viewBox="0.00 0.00 1725.00 545.00" xmlns="http://www.w3.org/2000/svg" xmlns:xlink="http://www.w3.org/1999/xlink">
<g id="graph0" class="graph" transform="scale(1 1) rotate(0) translate(4 541)">
<title>TatouArchitecture</title>
<polygon fill="white" stroke="transparent" points="-4,4 -4,-541 1721,-541 1721,4 -4,4"/>
<g id="clust1" class="cluster">
<title>cluster_frontend</title>
<polygon fill="none" stroke="#5dade2" points="371,-301 371,-505 513,-505 513,-301 371,-301"/>
<text text-anchor="middle" x="442" y="-491.4" font-family="Times,serif" font-size="12.00">Frontend Layer</text>
</g>
<g id="clust2" class="cluster">
<title>cluster_app</title>
<polygon fill="none" stroke="#58d68d" points="299,-112 299,-272 739,-272 739,-112 299,-112"/>
<text text-anchor="middle" x="519" y="-258.4" font-family="Times,serif" font-size="12.00">Application Layer</text>
</g>
<g id="clust3" class="cluster">
<title>cluster_data</title>
<polygon fill="none" stroke="#af7ac5" points="234,-8 234,-83 880,-83 880,-8 234,-8"/>
<text text-anchor="middle" x="557" y="-69.4" font-family="Times,serif" font-size="12.00">Data Layer</text>
</g>
<g id="clust4" class="cluster">
<title>cluster_infra</title>
<polygon fill="none" stroke="#d2b4de" points="521,-430 521,-505 877,-505 877,-430 521,-430"/>
<text text-anchor="middle" x="699" y="-491.4" font-family="Times,serif" font-size="12.00">Infrastructure</text>
</g>
<g id="clust5" class="cluster">
<title>cluster_external</title>
<polygon fill="none" stroke="#e74c3c" points="8,-431 8,-504 363,-504 363,-431 8,-431"/>
<text text-anchor="middle" x="185.5" y="-490.4" font-family="Times,serif" font-size="12.00">External (Untrusted)</text>
</g>
<g id="clust6" class="cluster">
<title>cluster_internal</title>
<polygon fill="none" stroke="#27ae60" points="885,-431 885,-504 1387,-504 1387,-431 885,-431"/>
<text text-anchor="middle" x="1136" y="-490.4" font-family="Times,serif" font-size="12.00">Internal (Trusted)</text>
</g>
<g id="clust7" class="cluster">
<title>cluster_security</title>
<polygon fill="none" stroke="#145a32" points="521,-302 521,-375 1413,-375 1413,-302 521,-302"/>
<text text-anchor="middle" x="967" y="-361.4" font-family="Times,serif" font-size="12.00">Security Controls</text>
</g>
<g id="clust8" class="cluster">
<title>cluster_legend</title>
<polygon fill="none" stroke="black" points="1395,-404 1395,-529 1709,-529 1709,-404 1395,-404"/>
<text text-anchor="middle" x="1552" y="-517" font-family="Times,serif" font-size="10.00">Legend</text>
</g>
<!-- User -->
<g id="node1" class="node">
<title>User</title>
<ellipse fill="#fadbd8" stroke="black" cx="323" cy="-457" rx="31.7" ry="18"/>
<text text-anchor="middle" x="323" y="-453.3" font-family="Helvetica,sans-Serif" font-size="14.00">User</text>
</g>
<!-- WebUI -->
<g id="node4" class="node">
<title>WebUI</title>
<polygon fill="#d6eaf8" stroke="black" points="488,-347 396,-347 396,-309 488,-309 488,-347"/>
<text text-anchor="middle" x="442" y="-331.8" font-family="Helvetica,sans-Serif" font-size="14.00">Web UI</text>
<text text-anchor="middle" x="442" y="-316.8" font-family="Helvetica,sans-Serif" font-size="14.00">(HTML / JS)</text>
</g>
<!-- User&#45;&gt;WebUI -->
<g id="edge1" class="edge">
<title>User&#45;&gt;WebUI</title>
<path fill="none" stroke="black" d="M333.35,-439.76C343.54,-424.37 360,-400.99 377,-383 386.8,-372.63 398.53,-362.35 409.31,-353.59"/>
<polygon fill="black" stroke="black" points="411.68,-356.17 417.32,-347.21 407.32,-350.7 411.68,-356.17"/>
<text text-anchor="middle" x="407.5" y="-386" font-family="Helvetica,sans-Serif" font-size="10.00">HTTP/HTTPS</text>
</g>
<!-- APIEndpoints -->
<g id="node7" class="node">
<title>APIEndpoints</title>
<polygon fill="#d6eaf8" stroke="black" points="431,-158 307,-158 307,-120 431,-120 431,-158"/>
<text text-anchor="middle" x="369" y="-142.8" font-family="Helvetica,sans-Serif" font-size="14.00">API Endpoints</text>
<text text-anchor="middle" x="369" y="-127.8" font-family="Helvetica,sans-Serif" font-size="14.00">(REST + RMAP)</text>
</g>
<!-- User&#45;&gt;APIEndpoints -->
<g id="edge2" class="edge">
<title>User&#45;&gt;APIEndpoints</title>
<path fill="none" stroke="black" d="M324.58,-438.85C328.78,-394.89 341.2,-274.74 360,-176 360.49,-173.45 361.04,-170.82 361.63,-168.18"/>
<polygon fill="black" stroke="black" points="365.09,-168.77 364.02,-158.23 358.28,-167.13 365.09,-168.77"/>
<text text-anchor="middle" x="385.5" y="-283" font-family="Helvetica,sans-Serif" font-size="10.00">API Calls (HTTPS)</text>
</g>
<!-- Attacker -->
<g id="node2" class="node">
<title>Attacker</title>
<ellipse fill="#f5b7b1" stroke="#c0392b" cx="225" cy="-457" rx="48.19" ry="18"/>
<text text-anchor="middle" x="225" y="-453.3" font-family="Helvetica,sans-Serif" font-size="14.00">Attacker</text>
</g>
<!-- Attacker&#45;&gt;APIEndpoints -->
<g id="edge3" class="edge">
<title>Attacker&#45;&gt;APIEndpoints</title>
<path fill="none" stroke="#c0392b" d="M226.83,-438.77C230.75,-406.39 241.75,-334.77 267,-280 287.08,-236.44 321.73,-192.81 345.01,-166.11"/>
<polygon fill="#c0392b" stroke="#c0392b" points="347.83,-168.2 351.83,-158.39 342.59,-163.56 347.83,-168.2"/>
<text text-anchor="middle" x="302.5" y="-283" font-family="Helvetica,sans-Serif" font-size="10.00">Attack vectors</text>
</g>
<!-- OtherGroups -->
<g id="node3" class="node">
<title>OtherGroups</title>
<ellipse fill="#fdebd0" stroke="black" cx="87" cy="-457" rx="71.49" ry="18"/>
<text text-anchor="middle" x="87" y="-453.3" font-family="Helvetica,sans-Serif" font-size="14.00">Other Groups</text>
</g>
<!-- OtherGroups&#45;&gt;APIEndpoints -->
<g id="edge4" class="edge">
<title>OtherGroups&#45;&gt;APIEndpoints</title>
<path fill="none" stroke="black" d="M90.18,-438.78C97.1,-405.15 116.21,-329.7 156,-280 199.3,-225.92 269.3,-185.62 317.15,-162.48"/>
<polygon fill="black" stroke="black" points="318.88,-165.53 326.41,-158.08 315.88,-159.21 318.88,-165.53"/>
<text text-anchor="middle" x="207.5" y="-283" font-family="Helvetica,sans-Serif" font-size="10.00">RMAP Protocol (GPG)</text>
</g>
<!-- FlaskApp -->
<g id="node6" class="node">
<title>FlaskApp</title>
<polygon fill="#d6eaf8" stroke="black" points="520,-243 386,-243 386,-205 520,-205 520,-243"/>
<text text-anchor="middle" x="453" y="-227.8" font-family="Helvetica,sans-Serif" font-size="14.00">Flask Application</text>
<text text-anchor="middle" x="453" y="-212.8" font-family="Helvetica,sans-Serif" font-size="14.00">(Gunicorn)</text>
</g>
<!-- WebUI&#45;&gt;FlaskApp -->
<g id="edge5" class="edge">
<title>WebUI&#45;&gt;FlaskApp</title>
<path fill="none" stroke="black" d="M443.97,-308.76C445.63,-293.32 448.05,-270.91 449.96,-253.16"/>
<polygon fill="black" stroke="black" points="453.46,-253.4 451.05,-243.08 446.5,-252.64 453.46,-253.4"/>
<text text-anchor="middle" x="482" y="-283" font-family="Helvetica,sans-Serif" font-size="10.00">Fetch / Submit</text>
</g>
<!-- StaticFiles -->
<g id="node5" class="node">
<title>StaticFiles</title>
<polygon fill="#d6eaf8" stroke="black" points="504.5,-476 379.5,-476 379.5,-438 504.5,-438 504.5,-476"/>
<text text-anchor="middle" x="442" y="-460.8" font-family="Helvetica,sans-Serif" font-size="14.00">Static Files</text>
<text text-anchor="middle" x="442" y="-445.8" font-family="Helvetica,sans-Serif" font-size="14.00">(CSS, JS, HTML)</text>
</g>
<!-- StaticFiles&#45;&gt;WebUI -->
<g id="edge6" class="edge">
<title>StaticFiles&#45;&gt;WebUI</title>
<path fill="none" stroke="black" d="M442,-437.8C442,-416.77 442,-381.91 442,-357.32"/>
<polygon fill="black" stroke="black" points="445.5,-357.16 442,-347.16 438.5,-357.16 445.5,-357.16"/>
</g>
<!-- FlaskApp&#45;&gt;APIEndpoints -->
<g id="edge9" class="edge">
<title>FlaskApp&#45;&gt;APIEndpoints</title>
<path fill="none" stroke="black" d="M387.09,-204.86C379.57,-200.2 372.87,-194.35 368,-187 364.39,-181.55 363.14,-174.92 363.12,-168.37"/>
<polygon fill="black" stroke="black" points="366.61,-168.58 363.94,-158.33 359.64,-168.01 366.61,-168.58"/>
<text text-anchor="middle" x="407" y="-179" font-family="Helvetica,sans-Serif" font-size="10.00">Request routing</text>
</g>
<!-- AuthModule -->
<g id="node8" class="node">
<title>AuthModule</title>
<polygon fill="#d6eaf8" stroke="black" points="731,-158 613,-158 613,-120 731,-120 731,-158"/>
<text text-anchor="middle" x="672" y="-142.8" font-family="Helvetica,sans-Serif" font-size="14.00">Authentication</text>
<text text-anchor="middle" x="672" y="-127.8" font-family="Helvetica,sans-Serif" font-size="14.00">(JWT + RMAP)</text>
</g>
<!-- FlaskApp&#45;&gt;AuthModule -->
<g id="edge7" class="edge">
<title>FlaskApp&#45;&gt;AuthModule</title>
<path fill="none" stroke="black" d="M500.52,-204.99C533.98,-192.31 578.96,-175.26 614.45,-161.81"/>
<polygon fill="black" stroke="black" points="616.08,-164.93 624.2,-158.12 613.6,-158.39 616.08,-164.93"/>
<text text-anchor="middle" x="639.5" y="-179" font-family="Helvetica,sans-Serif" font-size="10.00">Token validation / Session</text>
</g>
<!-- WatermarkEngine -->
<g id="node9" class="node">
<title>WatermarkEngine</title>
<polygon fill="#d6eaf8" stroke="black" points="595,-158 449,-158 449,-120 595,-120 595,-158"/>
<text text-anchor="middle" x="522" y="-142.8" font-family="Helvetica,sans-Serif" font-size="14.00">Watermark Engine</text>
<text text-anchor="middle" x="522" y="-127.8" font-family="Helvetica,sans-Serif" font-size="14.00">(Multiple Methods)</text>
</g>
<!-- FlaskApp&#45;&gt;WatermarkEngine -->
<g id="edge8" class="edge">
<title>FlaskApp&#45;&gt;WatermarkEngine</title>
<path fill="none" stroke="black" d="M449.24,-204.82C448.3,-195.55 448.77,-184.48 454,-176 456.73,-171.57 460.21,-167.65 464.15,-164.19"/>
<polygon fill="black" stroke="black" points="466.34,-166.92 472.2,-158.1 462.11,-161.34 466.34,-166.92"/>
<text text-anchor="middle" x="492" y="-179" font-family="Helvetica,sans-Serif" font-size="10.00">PDF processing</text>
</g>
<!-- MariaDB -->
<g id="node10" class="node">
<title>MariaDB</title>
<polygon fill="#d6eaf8" stroke="black" points="872,-54 702,-54 702,-16 872,-16 872,-54"/>
<text text-anchor="middle" x="787" y="-38.8" font-family="Helvetica,sans-Serif" font-size="14.00">MariaDB</text>
<text text-anchor="middle" x="787" y="-23.8" font-family="Helvetica,sans-Serif" font-size="14.00">(User Data, Metadata)</text>
</g>
<!-- APIEndpoints&#45;&gt;MariaDB -->
<g id="edge11" class="edge">
<title>APIEndpoints&#45;&gt;MariaDB</title>
<path fill="none" stroke="black" d="M411.95,-119.9C421.06,-116.73 430.73,-113.86 440,-112 487.54,-102.44 611.47,-115.65 658,-102 667.36,-99.25 668.41,-95.63 677,-91 677.42,-90.77 711.57,-73.7 741.7,-58.64"/>
<polygon fill="black" stroke="black" points="743.5,-61.65 750.88,-54.05 740.37,-55.39 743.5,-61.65"/>
<text text-anchor="middle" x="719" y="-94" font-family="Helvetica,sans-Serif" font-size="10.00">CRUD operations</text>
</g>
<!-- AuthModule&#45;&gt;MariaDB -->
<g id="edge10" class="edge">
<title>AuthModule&#45;&gt;MariaDB</title>
<path fill="none" stroke="black" stroke-dasharray="5,2" d="M731.33,-123.96C743.72,-118.75 755.8,-111.65 765,-102 774.8,-91.72 780.24,-76.96 783.25,-64.01"/>
<polygon fill="black" stroke="black" points="786.7,-64.61 785.19,-54.13 779.83,-63.27 786.7,-64.61"/>
<text text-anchor="middle" x="819" y="-94" font-family="Helvetica,sans-Serif" font-size="10.00">User auth &amp; tokens</text>
</g>
<!-- GPGKeys -->
<g id="node12" class="node">
<title>GPGKeys</title>
<polygon fill="#d6eaf8" stroke="black" points="683.5,-54 510.5,-54 510.5,-16 683.5,-16 683.5,-54"/>
<text text-anchor="middle" x="597" y="-38.8" font-family="Helvetica,sans-Serif" font-size="14.00">GPG Keys</text>
<text text-anchor="middle" x="597" y="-23.8" font-family="Helvetica,sans-Serif" font-size="14.00">(RMAP Authentication)</text>
</g>
<!-- AuthModule&#45;&gt;GPGKeys -->
<g id="edge13" class="edge">
<title>AuthModule&#45;&gt;GPGKeys</title>
<path fill="none" stroke="black" stroke-dasharray="5,2" d="M625.25,-119.89C618.15,-117.21 610.89,-114.5 604,-112 591.19,-107.34 582.91,-113.1 575,-102 566.76,-90.45 570.72,-75.6 577.41,-62.91"/>
<polygon fill="black" stroke="black" points="580.53,-64.52 582.63,-54.13 574.51,-60.94 580.53,-64.52"/>
<text text-anchor="middle" x="616.5" y="-94" font-family="Helvetica,sans-Serif" font-size="10.00">RMAP crypto ops</text>
</g>
<!-- FileStorage -->
<g id="node11" class="node">
<title>FileStorage</title>
<polygon fill="#d6eaf8" stroke="black" points="492.5,-54 355.5,-54 355.5,-16 492.5,-16 492.5,-54"/>
<text text-anchor="middle" x="424" y="-38.8" font-family="Helvetica,sans-Serif" font-size="14.00">File Storage</text>
<text text-anchor="middle" x="424" y="-23.8" font-family="Helvetica,sans-Serif" font-size="14.00">(PDF Documents)</text>
</g>
<!-- WatermarkEngine&#45;&gt;FileStorage -->
<g id="edge12" class="edge">
<title>WatermarkEngine&#45;&gt;FileStorage</title>
<path fill="none" stroke="black" d="M502.99,-119.88C497.15,-114.21 490.76,-107.9 485,-102 472.31,-88.98 458.54,-74.15 447.3,-61.84"/>
<polygon fill="black" stroke="black" points="449.64,-59.21 440.32,-54.17 444.46,-63.92 449.64,-59.21"/>
<text text-anchor="middle" x="526" y="-94" font-family="Helvetica,sans-Serif" font-size="10.00">Read/Write PDFs</text>
</g>
<!-- Flags -->
<g id="node13" class="node">
<title>Flags</title>
<polygon fill="#f9e79f" stroke="black" points="337.5,-54 242.5,-54 242.5,-16 337.5,-16 337.5,-54"/>
<text text-anchor="middle" x="290" y="-38.8" font-family="Helvetica,sans-Serif" font-size="14.00">Flag Files</text>
<text text-anchor="middle" x="290" y="-23.8" font-family="Helvetica,sans-Serif" font-size="14.00">(CTF Flags)</text>
</g>
<!-- Docker -->
<g id="node14" class="node">
<title>Docker</title>
<polygon fill="#d6eaf8" stroke="black" points="869,-476 689,-476 689,-438 869,-438 869,-476"/>
<text text-anchor="middle" x="779" y="-460.8" font-family="Helvetica,sans-Serif" font-size="14.00">Docker Container</text>
<text text-anchor="middle" x="779" y="-445.8" font-family="Helvetica,sans-Serif" font-size="14.00">(non&#45;root runtime user)</text>
</g>
<!-- VM -->
<g id="node15" class="node">
<title>VM</title>
<polygon fill="#d6eaf8" stroke="black" points="671,-476 529,-476 529,-438 671,-438 671,-476"/>
<text text-anchor="middle" x="600" y="-460.8" font-family="Helvetica,sans-Serif" font-size="14.00">University VM</text>
<text text-anchor="middle" x="600" y="-445.8" font-family="Helvetica,sans-Serif" font-size="14.00">(isolated network)</text>
</g>
<!-- cluster_frontend -->
<g id="node16" class="node">
<title>cluster_frontend</title>
<polygon fill="#d6eaf8" stroke="black" points="1379,-475 1249,-475 1249,-439 1379,-439 1379,-475"/>
<text text-anchor="middle" x="1314" y="-453.3" font-family="Helvetica,sans-Serif" font-size="14.00">cluster_frontend</text>
</g>
<!-- cluster_app -->
<g id="node17" class="node">
<title>cluster_app</title>
<polygon fill="#d6eaf8" stroke="black" points="1230.5,-475 1133.5,-475 1133.5,-439 1230.5,-439 1230.5,-475"/>
<text text-anchor="middle" x="1182" y="-453.3" font-family="Helvetica,sans-Serif" font-size="14.00">cluster_app</text>
</g>
<!-- cluster_data -->
<g id="node18" class="node">
<title>cluster_data</title>
<polygon fill="#d6eaf8" stroke="black" points="1115.5,-475 1014.5,-475 1014.5,-439 1115.5,-439 1115.5,-475"/>
<text text-anchor="middle" x="1065" y="-453.3" font-family="Helvetica,sans-Serif" font-size="14.00">cluster_data</text>
</g>
<!-- cluster_infra -->
<g id="node19" class="node">
<title>cluster_infra</title>
<polygon fill="#d6eaf8" stroke="black" points="996.5,-475 893.5,-475 893.5,-439 996.5,-439 996.5,-475"/>
<text text-anchor="middle" x="945" y="-453.3" font-family="Helvetica,sans-Serif" font-size="14.00">cluster_infra</text>
</g>
<!-- InputValidation -->
<g id="node20" class="node">
<title>InputValidation</title>
<ellipse fill="#d6eaf8" stroke="black" cx="802" cy="-328" rx="81.49" ry="18"/>
<text text-anchor="middle" x="802" y="-324.3" font-family="Helvetica,sans-Serif" font-size="14.00">Input Validation</text>
</g>
<!-- InputValidation&#45;&gt;APIEndpoints -->
<g id="edge14" class="edge">
<title>InputValidation&#45;&gt;APIEndpoints</title>
<path fill="none" stroke="#145a32" stroke-dasharray="5,2" d="M742.87,-315.52C728.73,-310.19 714.89,-302.4 705,-291 670.72,-251.5 719.47,-210.32 680,-176 661.28,-159.72 493.44,-161.86 441.19,-157.56"/>
<polygon fill="#145a32" stroke="#145a32" points="441.54,-154.07 431.21,-156.42 440.75,-161.03 441.54,-154.07"/>
</g>
<!-- RateLimiting -->
<g id="node21" class="node">
<title>RateLimiting</title>
<ellipse fill="#d6eaf8" stroke="black" cx="971" cy="-328" rx="70.39" ry="18"/>
<text text-anchor="middle" x="971" y="-324.3" font-family="Helvetica,sans-Serif" font-size="14.00">Rate Limiting</text>
</g>
<!-- RateLimiting&#45;&gt;APIEndpoints -->
<g id="edge15" class="edge">
<title>RateLimiting&#45;&gt;APIEndpoints</title>
<path fill="none" stroke="#145a32" stroke-dasharray="5,2" d="M931.92,-313.01C919.29,-308.79 905.14,-304.38 892,-301 824.55,-283.63 792.11,-315.85 738,-272 702.09,-242.9 735.54,-202.96 698,-176 676.3,-160.42 496.48,-162.18 441.43,-157.6"/>
<polygon fill="#145a32" stroke="#145a32" points="441.54,-154.09 431.21,-156.44 440.75,-161.04 441.54,-154.09"/>
</g>
<!-- TokenValidation -->
<g id="node22" class="node">
<title>TokenValidation</title>
<ellipse fill="#d6eaf8" stroke="black" cx="1322" cy="-328" rx="83.39" ry="18"/>
<text text-anchor="middle" x="1322" y="-324.3" font-family="Helvetica,sans-Serif" font-size="14.00">Token Validation</text>
</g>
<!-- TokenValidation&#45;&gt;AuthModule -->
<g id="edge16" class="edge">
<title>TokenValidation&#45;&gt;AuthModule</title>
<path fill="none" stroke="#145a32" stroke-dasharray="5,2" d="M1335.66,-310.12C1354.5,-284.66 1383.42,-236.13 1358,-205 1311.93,-148.57 1121.73,-189.36 793,-158 776.28,-156.41 758.34,-154.08 741.54,-151.62"/>
<polygon fill="#145a32" stroke="#145a32" points="741.65,-148.1 731.24,-150.08 740.61,-155.02 741.65,-148.1"/>
</g>
<!-- FileSanitization -->
<g id="node23" class="node">
<title>FileSanitization</title>
<ellipse fill="#d6eaf8" stroke="black" cx="1140" cy="-328" rx="81.49" ry="18"/>
<text text-anchor="middle" x="1140" y="-324.3" font-family="Helvetica,sans-Serif" font-size="14.00">File Sanitization</text>
</g>
<!-- FileSanitization&#45;&gt;WatermarkEngine -->
<g id="edge17" class="edge">
<title>FileSanitization&#45;&gt;WatermarkEngine</title>
<path fill="none" stroke="#145a32" stroke-dasharray="5,2" d="M1149.61,-309.92C1162.9,-283.77 1182.43,-233.8 1156,-205 1116.05,-161.46 700.21,-166.67 605.37,-157.77"/>
<polygon fill="#145a32" stroke="#145a32" points="605.57,-154.27 595.23,-156.58 604.75,-161.22 605.57,-154.27"/>
</g>
<!-- Logging -->
<g id="node24" class="node">
<title>Logging</title>
<ellipse fill="#d6eaf8" stroke="black" cx="616" cy="-328" rx="87.18" ry="18"/>
<text text-anchor="middle" x="616" y="-324.3" font-family="Helvetica,sans-Serif" font-size="14.00">Security Logging</text>
</g>
<!-- Logging&#45;&gt;FlaskApp -->
<g id="edge18" class="edge">
<title>Logging&#45;&gt;FlaskApp</title>
<path fill="none" stroke="#145a32" stroke-dasharray="5,2" d="M589.81,-310.61C562.95,-293.8 520.9,-267.49 490.51,-248.47"/>
<polygon fill="#145a32" stroke="#145a32" points="492.2,-245.4 481.87,-243.07 488.49,-251.34 492.2,-245.4"/>
</g>
<!-- APIAttack -->
<g id="node25" class="node">
<title>APIAttack</title>
<polygon fill="#fadbd8" stroke="#c0392b" points="951.01,-216.54 951.01,-231.46 891.26,-242 806.74,-242 746.99,-231.46 746.99,-216.54 806.74,-206 891.26,-206 951.01,-216.54"/>
<text text-anchor="middle" x="849" y="-220.3" font-family="Helvetica,sans-Serif" font-size="14.00">API Attack Surface</text>
</g>
<!-- APIAttack&#45;&gt;APIEndpoints -->
<g id="edge19" class="edge">
<title>APIAttack&#45;&gt;APIEndpoints</title>
<path fill="none" stroke="#c0392b" stroke-dasharray="1,5" d="M815.18,-205.89C792.53,-195.3 761.71,-182.52 733,-176 608.87,-147.83 570.76,-176.64 441.11,-157.96"/>
<polygon fill="#c0392b" stroke="#c0392b" points="441.61,-154.5 431.2,-156.47 440.57,-161.42 441.61,-154.5"/>
</g>
<!-- FileUploadAttack -->
<g id="node26" class="node">
<title>FileUploadAttack</title>
<polygon fill="#fadbd8" stroke="#c0392b" points="1146.78,-216.54 1146.78,-231.46 1094.77,-242 1021.23,-242 969.22,-231.46 969.22,-216.54 1021.23,-206 1094.77,-206 1146.78,-216.54"/>
<text text-anchor="middle" x="1058" y="-220.3" font-family="Helvetica,sans-Serif" font-size="14.00">File Upload Risk</text>
</g>
<!-- FileUploadAttack&#45;&gt;WatermarkEngine -->
<g id="edge20" class="edge">
<title>FileUploadAttack&#45;&gt;WatermarkEngine</title>
<path fill="none" stroke="#c0392b" stroke-dasharray="1,5" d="M995.32,-211.16C983.59,-209.04 971.43,-206.9 960,-205 873.57,-190.64 851.89,-187.31 765,-176 696.67,-167.1 676.73,-169.5 605.2,-158.1"/>
<polygon fill="#c0392b" stroke="#c0392b" points="605.68,-154.63 595.24,-156.48 604.55,-161.54 605.68,-154.63"/>
</g>
<!-- DatabaseAttack -->
<g id="node27" class="node">
<title>DatabaseAttack</title>
<polygon fill="#fadbd8" stroke="#c0392b" points="990.04,-131.54 990.04,-146.46 934.95,-157 857.05,-157 801.96,-146.46 801.96,-131.54 857.05,-121 934.95,-121 990.04,-131.54"/>
<text text-anchor="middle" x="896" y="-135.3" font-family="Helvetica,sans-Serif" font-size="14.00">Database Access</text>
</g>
<!-- DatabaseAttack&#45;&gt;MariaDB -->
<g id="edge21" class="edge">
<title>DatabaseAttack&#45;&gt;MariaDB</title>
<path fill="none" stroke="#c0392b" stroke-dasharray="1,5" d="M894.06,-120.92C892.25,-111.31 888.75,-99.56 882,-91 871.64,-77.86 857.22,-67.27 842.73,-59.02"/>
<polygon fill="#c0392b" stroke="#c0392b" points="844.21,-55.84 833.74,-54.18 840.89,-62 844.21,-55.84"/>
</g>
<!-- AuthBypass -->
<g id="node28" class="node">
<title>AuthBypass</title>
<polygon fill="#fadbd8" stroke="#c0392b" points="1349.33,-216.54 1349.33,-231.46 1306.37,-242 1245.63,-242 1202.67,-231.46 1202.67,-216.54 1245.63,-206 1306.37,-206 1349.33,-216.54"/>
<text text-anchor="middle" x="1276" y="-220.3" font-family="Helvetica,sans-Serif" font-size="14.00">Auth Bypass</text>
</g>
<!-- AuthBypass&#45;&gt;AuthModule -->
<g id="edge22" class="edge">
<title>AuthBypass&#45;&gt;AuthModule</title>
<path fill="none" stroke="#c0392b" stroke-dasharray="1,5" d="M1251.4,-205.81C1234.65,-195.11 1211.5,-182.24 1189,-176 1104.11,-152.47 880.68,-166.49 793,-158 776.28,-156.38 758.35,-154.04 741.54,-151.59"/>
<polygon fill="#c0392b" stroke="#c0392b" points="741.65,-148.07 731.24,-150.05 740.61,-154.99 741.65,-148.07"/>
</g>
<!-- LegendControl -->
<g id="node29" class="node">
<title>LegendControl</title>
<polygon fill="#d6eaf8" stroke="transparent" points="1701,-502 1403,-502 1403,-412 1701,-412 1701,-502"/>
<text text-anchor="start" x="1531" y="-487" font-family="Helvetica,sans-Serif" font-weight="bold" font-size="10.00">Legend</text>
<text text-anchor="start" x="1415" y="-465.8" font-family="Helvetica,sans-Serif" font-size="14.00">&#45; Solid edge: normal dataflow</text>
<text text-anchor="start" x="1415" y="-444.8" font-family="Helvetica,sans-Serif" font-size="14.00">&#45; Dashed edge: security control relation</text>
<text text-anchor="start" x="1415" y="-423.8" font-family="Helvetica,sans-Serif" font-size="14.00">&#45; Octagon (red): Critical attack point</text>
</g>
</g>
</svg>
